<?xml version="1.0" encoding="UTF-8"?>
<svg xmlns="http://www.w3.org/2000/svg" width="512" height="512" viewBox="0 0 512 512" role="img" aria-labelledby="lc-title">
  <title id="lc-title">LiumingClassroom · 粉笔日</title>
  <defs>
    <clipPath id="board"><rect width="512" height="512" rx="112.6"/></clipPath>
    <linearGradient id="board-bg" x1="0.256" y1="-0.103" x2="0.744" y2="1.103">
      <stop offset="0" stop-color="#FAFDFE"/>
      <stop offset="1" stop-color="#DDF7FE"/>
    </linearGradient>
    <radialGradient id="halo" cx="0.5" cy="0.45" r="0.743">
      <stop offset="0" stop-color="#B0EBFA"/>
      <stop offset="0.36" stop-color="#C8F4FE"/>
      <stop offset="0.74" stop-color="#C8F4FE" stop-opacity="0"/>
    </radialGradient>
    <filter id="mark-shadow" x="-30%" y="-30%" width="160%" height="160%">
      <feDropShadow dx="0" dy="13.3" stdDeviation="14.1" flood-color="#416A77" flood-opacity="0.32"/>
    </filter>
  </defs>
  <g clip-path="url(#board)" style="isolation:isolate">
    <rect width="512" height="512" fill="url(#board-bg)"/>
    <rect width="512" height="512" fill="url(#halo)"/>
    <g filter="url(#mark-shadow)">
      <path d="M248.9 87.4L250.2 87.1L262.5 87.1L263.1 87.4L263.4 88L263.4 153.5L263.7 155.9L264.3 156.2L272.9 157.1L281.5 158.9L289.4 161.3L295.5 163.7L304.1 167.9L311.4 172.4L318.2 177.2L326.7 184.7L332.4 190.9L337.2 197L343.4 206.8L347.7 215.3L349.6 219.6L353.3 231.2L354.5 236.8L356.1 248.4L358 248.8L424.1 248.7L424.7 248.9L425 249.6L424.9 262.5L424.7 263.2L410 263.4L408.9 263.7L407.7 276.5L406.4 284.5L404.1 294.9L399.6 309L395.4 319.4L390.5 329.2L382.7 342L376.4 350.6L369.1 359.2L358.6 369.7L345.7 380.2L333.5 388.1L322.5 394.1L312.1 398.6L305.9 400.9L291.2 405.1L281.5 407.2L263.7 409.1L263.4 410L263.3 424L263.1 424.7L262.5 424.9L249.6 424.9L248.8 424.7L248.6 356.7L247.8 356.3L235.6 354.5L227.6 352.6L219 349.6L211.7 346.4L200.1 339.6L192.1 333.7L185.1 327.3L179.2 320.9L172.9 312.7L168.7 305.9L164.9 298.6L160.8 288.2L158.3 279.6L156.4 269.2L156.2 265.5L155.6 263.7L153.5 263.4L88 263.4L87.2 263.1L87 262.5L87 250.2L87.4 248.9L102.1 248.7L103 248.4L104.4 234.9L106.8 221.5L110.5 208.6L114.8 197L121 184.1L127.1 173.7L134.4 163.3L144.2 151.7L152.9 143.1L163.3 134.3L175.6 125.9L190.3 117.9L197 114.8L206.8 111.1L219 107.5L231.9 104.9L248.4 103.1L248.7 102.1ZM246.4 118L248.4 118L248.7 121.1L248.7 235.5L248.4 237.9L246.6 236.4L163.8 153.5L163.9 152.9L164.6 152.2L171.3 146.7L179.9 140.6L190.3 134.3L200.1 129.5L214.7 124L223.9 121.5L232.5 119.7ZM152.3 164.5L152.9 164L153.5 164L155.4 165.7L237.4 247.7L237.7 248.4L237.4 248.7L234.9 248.8L119.9 248.7L118 248.4L118.4 240.4L120.9 225.7L123.3 216.6L127.1 205.5L133.2 192.1L138.1 183.5L144.8 173.7ZM263.4 171.3L264.3 170.8L267.4 171L277.2 172.9L285.1 175.4L291.2 177.8L297.4 180.9L303.5 184.6L310.8 190.1L316.4 195.1L322 201.3L324.9 204.9L329.5 211.7L333.2 218.4L336.1 225.1L339.1 234.3L341.1 244.1L341.2 248.4L340.8 248.7L339 248.8L264.3 248.7L263.5 248.4ZM170.6 263.7L172.5 263.4L248.4 263.5L248.7 267.4L248.7 339L248.7 340.8L248.4 341.4L239.8 340.5L234.3 339.2L225.1 336.2L219 333.5L212.3 330L206.8 326.4L200.2 321.2L195.8 317.1L192.1 313.2L187.1 307.1L182.2 299.8L179.1 294.3L175.4 285.7L172.9 277.8L171.2 269.2ZM274.1 263.7L274.7 263.3L392.2 263.3L393.5 263.4L394.1 263.7L394.2 264.3L393.6 272.3L391.3 285.7L389.3 293.7L387.5 299.2L383.2 310.8L377.2 323.1L371.7 332.2L363 343.9L359.8 347.6L359.2 348.2L358.6 348.2ZM263.4 274.7L263.7 274.4L264.3 274.6L347.6 357.9L348.3 359.2L347.8 359.8L338.4 367.3L328.6 374L317.6 380.1L307.8 384.5L295.5 388.8L280.8 392.3L271.1 393.7L264.3 394.3L263.6 394.1Z" fill="#101618" fill-rule="evenodd"/>
    </g>
  </g>
</svg>
